<?xml version="1.0" ?><!DOCTYPE svg  PUBLIC '-//W3C//DTD SVG 1.1//EN'  'http://www.w3.org/Graphics/SVG/1.1/DTD/svg11.dtd'><svg enable-background="new 0 0 52 53" height="53px" id="Layer_1" version="1.1" viewBox="0 0 52 53" width="52px" xml:space="preserve" xmlns="http://www.w3.org/2000/svg" xmlns:xlink="http://www.w3.org/1999/xlink"><g><path d="M50.25,8H44V2c0-1.104-0.896-2-2-2h-4c-1.104,0-2,0.896-2,2v6H17V2c0-1.104-0.896-2-2-2h-4   C9.896,0,9,0.896,9,2v6H2.25C1.146,8,0,8.896,0,10v8h52v-8C52,8.896,51.354,8,50.25,8z" fill="#231F20"/><path d="M0,51c0,1.104,1.146,2,2.25,2h48c1.104,0,1.75-0.896,1.75-2V23H0V51z" fill="#231F20"/></g></svg>