<?xml version="1.0" encoding="UTF-8"?>
<!DOCTYPE svg PUBLIC "-//W3C//DTD SVG 1.1//EN" "http://www.w3.org/Graphics/SVG/1.1/DTD/svg11.dtd">
<!-- Creator: CorelDRAW X6 -->
<svg xmlns="http://www.w3.org/2000/svg" xml:space="preserve" width="5.22222in" height="5.20833in" version="1.1" style="shape-rendering:geometricPrecision; text-rendering:geometricPrecision; image-rendering:optimizeQuality; fill-rule:evenodd; clip-rule:evenodd"
viewBox="0 0 5222 5208"
 xmlns:xlink="http://www.w3.org/1999/xlink">
 <defs>
  <style type="text/css">
   <![CDATA[
    .fil12 {fill:#214F7D}
    .fil8 {fill:#265C91}
    .fil11 {fill:#306BA6}
    .fil3 {fill:#336699}
    .fil1 {fill:#4D4D4D}
    .fil6 {fill:#4F94D9}
    .fil0 {fill:gray}
    .fil5 {fill:#B2B2B2}
    .fil10 {fill:#BD0000}
    .fil2 {fill:#CCCCCC}
    .fil4 {fill:#E6E6E6}
    .fil9 {fill:#FF5C5C}
    .fil7 {fill:white}
   ]]>
  </style>
 </defs>
 <g id="Layer_x0020_1">
  <metadata id="CorelCorpID_0Corel-Layer"/>
  <polygon class="fil0" points="9,5200 5209,5200 5209,0 9,0 "/>
  <polygon class="fil1" points="5209,1707 5209,5200 1551,5200 580,4222 4638,1137 "/>
  <polygon class="fil2" points="580,4222 4638,4222 4638,3899 580,3899 "/>
  <polygon class="fil3" points="633,3899 4584,3899 4584,2973 633,2973 "/>
  <polygon class="fil2" points="580,2973 4638,2973 4638,2777 580,2777 "/>
  <polygon class="fil4" points="580,2826 4638,2826 4638,2777 580,2777 "/>
  <polygon class="fil1" points="3079,814 3642,1376 2517,1384 "/>
  <polygon class="fil4" points="580,3948 4638,3948 4638,3899 580,3899 "/>
  <polygon class="fil3" points="633,2777 4584,2777 4584,2314 633,2314 "/>
  <polygon class="fil2" points="580,2314 4638,2314 4638,2118 580,2118 "/>
  <polygon class="fil4" points="580,2168 4638,2168 4638,2118 580,2118 "/>
  <polygon class="fil3" points="633,2118 4584,2118 4584,1655 633,1655 "/>
  <polygon class="fil2" points="580,1655 4638,1655 4638,1459 580,1459 "/>
  <polygon class="fil4" points="580,1509 4638,1509 4638,1460 580,1460 "/>
  <polygon class="fil2" points="580,1460 4638,1460 4638,1137 580,1137 "/>
  <polygon class="fil4" points="580,1186 4638,1186 4638,1137 580,1137 "/>
  <polygon class="fil5" points="1830,4222 3387,4222 3387,3288 1830,3288 "/>
  <polygon class="fil4" points="1880,4222 3337,4222 3337,3340 1880,3340 "/>
  <polygon class="fil5" points="2590,4222 2627,4222 2627,3299 2590,3299 "/>
  <polygon class="fil2" points="2590,4222 2609,4222 2609,3340 2590,3340 "/>
  <polygon class="fil6" points="1930,4062 2535,4062 2535,3381 1930,3381 "/>
  <path class="fil7" d="M2230 4046l-47 0 -237 -237 0 -47 284 284zm-91 0l-47 0 -146 -146 0 -47 193 193zm-89 0l-47 0 -57 -57 0 -47 104 104z"/>
  <polygon class="fil6" points="2676,4062 3282,4062 3282,3381 2676,3381 "/>
  <path class="fil7" d="M2986 4046l-47 0 -237 -237 0 -47 284 284zm-91 0l-47 0 -146 -146 0 -47 193 193zm-89 0l-47 0 -57 -57 0 -47 104 104z"/>
  <polygon class="fil8" points="2854,2777 3257,2777 3257,2389 2854,2389 "/>
  <path class="fil4" d="M2609 1903c227,0 411,184 411,411 0,227 -184,411 -411,411 -227,0 -411,-184 -411,-411 0,-227 184,-411 411,-411z"/>
  <path class="fil2" d="M2609 1951c201,0 363,163 363,363 0,201 -163,363 -363,363 -201,0 -363,-163 -363,-363 0,-201 163,-363 363,-363z"/>
  <polygon class="fil9" points="2512,2038 2706,2038 2706,2217 2885,2217 2885,2411 2706,2411 2706,2591 2512,2591 2512,2411 2332,2411 2332,2217 2512,2217 "/>
  <polygon class="fil10" points="2706,2054 2706,2217 2720,2217 2720,2233 2885,2233 2885,2411 2706,2411 2706,2591 2526,2591 2526,2427 2512,2427 2512,2411 2347,2411 2347,2233 2526,2233 2526,2054 "/>
  <polygon class="fil11" points="795,3899 1091,3899 1091,3241 795,3241 "/>
  <polygon class="fil8" points="1246,3899 1650,3899 1650,3511 1246,3511 "/>
  <polygon class="fil12" points="1484,3188 1739,3188 1739,3899 1650,3899 1650,3511 1484,3511 "/>
  <polygon class="fil8" points="4095,3899 4504,3899 4504,3275 4095,3275 "/>
  <polygon class="fil12" points="3885,3899 4011,3899 4011,3573 3885,3573 "/>
  <polygon class="fil11" points="3513,3899 3785,3899 3785,3495 3513,3495 "/>
  <polygon class="fil11" points="3408,2777 3681,2777 3681,2488 3408,2488 "/>
  <polygon class="fil12" points="3958,2777 4289,2777 4289,2614 3958,2614 "/>
  <polygon class="fil12" points="1233,2777 1563,2777 1563,2403 1233,2403 "/>
  <polygon class="fil11" points="770,2777 1342,2777 1342,2633 770,2633 "/>
  <polygon class="fil8" points="1781,2777 2128,2777 2128,2650 1781,2650 "/>
  <polygon class="fil12" points="3958,2118 4289,2118 4289,1850 3958,1850 "/>
  <polygon class="fil11" points="3527,2118 4099,2118 4099,1974 3527,1974 "/>
  <polygon class="fil12" points="1783,2118 2113,2118 2113,1956 1783,1956 "/>
  <polygon class="fil8" points="769,2118 1116,2118 1116,1863 769,1863 "/>
  <polygon class="fil11" points="1411,2118 1913,2118 1913,1848 1411,1848 "/>
  <polygon class="fil8" points="3033,2118 3381,2118 3381,1877 3033,1877 "/>
  <polygon class="fil2" points="2138,1137 3079,1137 3079,814 2138,814 "/>
  <polygon class="fil4" points="2138,863 3079,863 3079,814 2138,814 "/>
 </g>
</svg>
